<svg width="80" height="80" viewBox="0 0 80 80" fill="none" xmlns="http://www.w3.org/2000/svg">
<circle cx="40" cy="40" r="40" fill="#E6F0F2"/>
<path d="M42.6163 18.002C42.1089 18.002 41.6972 18.4133 41.6972 18.921C41.6972 19.4283 42.1094 19.84 42.6163 19.84C53.9449 19.84 63.1612 29.0572 63.1612 40.385C63.1612 51.7136 53.9454 60.93 42.6163 60.93C32.3944 60.93 23.9212 53.5907 22.348 43.6522L28.7132 48.6358L29.8458 47.1863L21.1535 40.384L15 49.548L16.5267 50.5747L20.6089 44.492C22.5416 55.0436 31.6663 62.7677 42.6162 62.7677C54.9581 62.7677 65 52.7263 65 40.3838C64.9996 28.0419 54.9591 18 42.6172 18L42.6163 18.002Z" fill="black"/>
<path d="M36.4771 48.4075C36.951 48.4075 37.4253 48.2261 37.7868 47.8654L43.9206 41.7317C44.0089 41.6438 44.0878 41.5473 44.1573 41.4426C44.1817 41.4057 44.1985 41.3659 44.2199 41.3277C44.2581 41.2608 44.298 41.1948 44.3276 41.1236C44.3473 41.0755 44.3576 41.0258 44.373 40.9773C44.394 40.9117 44.4185 40.847 44.4322 40.7783C44.4481 40.6964 44.4519 40.6141 44.4575 40.5313C44.4601 40.494 44.4686 40.458 44.4686 40.4194L44.4682 25.8708C44.4682 24.8498 43.6384 24.0187 42.6165 24.0187C41.5946 24.0187 40.7648 24.8498 40.7648 25.8708V39.6498L35.1658 45.2466C34.4453 45.9688 34.4453 47.1438 35.1662 47.8655C35.5286 48.2266 36.0025 48.4071 36.4771 48.4071L36.4771 48.4075ZM42.6169 41.0455C42.2713 41.0455 41.9899 40.7637 41.9899 40.4185V40.1578L42.1743 39.9734C42.2923 39.8546 42.4492 39.7894 42.6169 39.7894C42.7841 39.7894 42.9415 39.855 43.0603 39.9734C43.2117 40.1252 43.2576 40.3344 43.2216 40.5309C43.2134 40.5724 43.2121 40.6162 43.1963 40.6552C43.1654 40.7294 43.1208 40.7997 43.0603 40.8606L43.0565 40.8645C42.9428 40.976 42.788 41.0455 42.6169 41.0455ZM42.6169 25.2443C42.9625 25.2443 43.2439 25.5252 43.2439 25.8708V38.6914C42.8399 38.5529 42.3935 38.5529 41.9895 38.6914L41.9899 25.8719C41.9895 25.5263 42.2717 25.2445 42.6169 25.2445L42.6169 25.2443ZM36.0333 46.1131L40.9452 41.202C41.1283 41.5918 41.4418 41.9053 41.8316 42.0893L36.9213 46.9996C36.6773 47.2436 36.2793 47.2453 36.0336 46.9996C35.7892 46.7564 35.7892 46.3585 36.0332 46.1132L36.0333 46.1131Z" fill="black"/>
<path d="M48.9947 29.3391C49.2713 29.4982 49.5719 29.5732 49.87 29.5732C50.4781 29.5732 51.0695 29.2584 51.3946 28.6954C51.8783 27.8557 51.5893 26.7789 50.7509 26.2952C49.9103 25.8114 48.8352 26.0992 48.3507 26.9389C47.8669 27.7781 48.1559 28.8549 48.9947 29.3391ZM49.4124 27.5512C49.5102 27.381 49.6899 27.2849 49.8734 27.2849C49.9639 27.2849 50.0548 27.3081 50.1384 27.357C50.3923 27.5032 50.4798 27.8291 50.3327 28.083C50.1865 28.3377 49.8623 28.4231 49.6067 28.2773C49.3537 28.131 49.2657 27.8043 49.4124 27.5512Z" fill="black"/>
<path d="M54.2491 31.5084C53.3558 32.0243 53.0492 33.1714 53.5647 34.0652C53.9107 34.6647 54.5416 34.9992 55.1891 34.9992C55.5056 34.9992 55.8268 34.9186 56.1206 34.75L56.121 34.7496C57.0143 34.2337 57.321 33.0866 56.8055 32.1928C56.2896 31.3004 55.1432 30.9925 54.2491 31.5084ZM55.5087 33.6882C55.1999 33.8666 54.8036 33.7602 54.6257 33.4519C54.4473 33.1431 54.5536 32.7469 54.862 32.5689C54.9636 32.5106 55.0747 32.4823 55.184 32.4823C55.407 32.4823 55.6253 32.5985 55.7445 32.8052C55.9229 33.1135 55.8161 33.5102 55.5087 33.6882Z" fill="black"/>
<path d="M55.145 40.3856C55.145 41.48 56.0353 42.3703 57.1297 42.3703C58.2245 42.3703 59.1157 41.48 59.1157 40.3856C59.1157 39.2907 58.2254 38.3996 57.1297 38.3996C56.0353 38.3996 55.145 39.2907 55.145 40.3856ZM57.1297 39.6244C57.5482 39.6244 57.8909 39.9662 57.8909 40.3856C57.8909 40.805 57.5491 41.1455 57.1297 41.1455C56.7103 41.1455 56.3694 40.8041 56.3694 40.3856C56.3694 39.967 56.7103 39.6244 57.1297 39.6244Z" fill="black"/>
<path d="M54.1334 49.4602C54.1338 49.4602 54.1338 49.4606 54.1338 49.4606C54.4572 49.6468 54.8161 49.7424 55.1802 49.7424C55.3629 49.7424 55.5464 49.7192 55.7278 49.6699C56.2699 49.525 56.7232 49.1776 57.0023 48.6917C57.2836 48.2063 57.3587 47.6398 57.2137 47.099C57.0688 46.5569 56.7214 46.1041 56.2351 45.8227C55.2295 45.2447 53.9443 45.589 53.367 46.5916C52.7863 47.5939 53.1316 48.8812 54.1334 49.4602ZM54.4276 47.2045C54.5438 47.0016 54.7329 46.8571 54.9576 46.7971C55.1858 46.7358 55.4208 46.7675 55.6215 46.8837C55.8243 47.0012 55.9689 47.1899 56.0297 47.4155C56.0898 47.6411 56.0585 47.8765 55.9414 48.0793C55.8252 48.2822 55.6361 48.4267 55.4101 48.4867C55.1862 48.5468 54.9491 48.5163 54.7462 48.3992C54.5438 48.2817 54.4002 48.0939 54.3388 47.8679C54.2792 47.6432 54.3105 47.4078 54.4276 47.2045Z" fill="black"/>
<path d="M47.9553 54.0612C48.2516 54.5741 48.7293 54.9404 49.3006 55.0935C49.491 55.1445 49.6848 55.1698 49.8773 55.1698C50.2616 55.1698 50.6403 55.069 50.9817 54.8722C51.4946 54.5763 51.8608 54.099 52.0139 53.5278C52.167 52.9566 52.0881 52.3591 51.7926 51.8475C51.1815 50.7887 49.823 50.4268 48.7671 51.0362C47.7083 51.6473 47.345 53.0041 47.9553 54.0612ZM48.9176 52.698C48.9858 52.4432 49.15 52.2301 49.3786 52.098C49.5334 52.0075 49.7032 51.9659 49.8709 51.9659C50.214 51.9659 50.5472 52.1435 50.7299 52.4604C50.8628 52.6898 50.8975 52.9565 50.8294 53.2109C50.7612 53.466 50.5978 53.6787 50.3684 53.8108C50.1385 53.9429 49.8735 53.9785 49.617 53.9103C49.3623 53.8421 49.1492 53.6779 49.0171 53.4493C48.8846 53.2199 48.8494 52.9531 48.9176 52.698Z" fill="black"/>
<path d="M42.6163 52.5704C41.3319 52.5704 40.2881 53.6151 40.2881 54.8986C40.2881 56.1834 41.3327 57.2281 42.6163 57.2281C43.9006 57.2281 44.9445 56.1835 44.9445 54.8986C44.9445 53.6147 43.9002 52.5704 42.6163 52.5704ZM42.6163 56.0034C42.0077 56.0034 41.512 55.5072 41.512 54.8987C41.512 54.2902 42.0068 53.7944 42.6163 53.7944C43.2257 53.7944 43.7206 54.2893 43.7206 54.8987C43.7206 55.5077 43.2253 56.0034 42.6163 56.0034Z" fill="black"/>
<path d="M34.1389 55.0713C34.515 55.2883 34.9331 55.3998 35.3564 55.3998C35.5691 55.3998 35.7822 55.3715 35.9919 55.3157C36.6228 55.1467 37.1489 54.7419 37.4762 54.1771C37.8026 53.6124 37.8892 52.9536 37.7202 52.3237C37.5513 51.6928 37.1464 51.1667 36.5817 50.8394C36.0169 50.513 35.3565 50.4281 34.7282 50.5954C34.0973 50.7643 33.5712 51.1692 33.2439 51.7339C32.9175 52.2987 32.8309 52.9575 32.9999 53.5874C33.1684 54.2174 33.5737 54.7436 34.1389 55.0713ZM34.3061 52.3456C34.4691 52.0638 34.7311 51.8631 35.045 51.7782C35.1501 51.7499 35.2564 51.7366 35.3624 51.7366C35.5734 51.7366 35.7809 51.7923 35.9692 51.9008C36.2509 52.0638 36.4516 52.3258 36.5365 52.6397C36.6206 52.9541 36.5764 53.283 36.4143 53.5643C36.2513 53.8461 35.9893 54.0468 35.6754 54.1317C35.3611 54.2158 35.0334 54.1716 34.7508 54.0095C34.1693 53.6733 33.9695 52.927 34.3061 52.3456Z" fill="black"/>
</svg>
