<svg width="80" height="80" viewBox="0 0 80 80" fill="none" xmlns="http://www.w3.org/2000/svg">
<circle cx="40" cy="40" r="40" fill="#E6F0F2"/>
<path d="M39.65 15.0027C25.9015 15.2025 14.8027 26.5514 15.0027 40.35C15.2025 54.1485 26.5514 65.1973 40.35 64.9973C54.1485 64.7975 65.1973 53.4486 64.9973 39.65C64.7975 25.9015 53.4486 14.8027 39.65 15.0027ZM40.3001 63.7975C27.2015 63.9976 16.4026 53.4486 16.2026 40.3C16.0025 27.2014 26.5515 16.4025 39.7001 16.2025C52.7987 16.0027 63.6476 26.5514 63.7976 39.7C63.9974 52.7986 53.4487 63.5975 40.3001 63.7975Z" fill="black"/>
<path d="M41.5502 52.6987L40.3003 52.5986V52.2987C40.7502 45.9994 33.5512 42.3997 33.251 42.1997L33.8009 41.0999C34.1009 41.2498 39.8002 44.1495 41.2502 49.3488C42.2002 47.4991 44.0498 45.2993 47.6495 43.6494L48.1496 44.7992C42.5002 47.3491 41.7001 51.4987 41.5502 52.4487V52.6984L41.5502 52.6987Z" fill="black"/>
<path d="M47.699 50.1989H47.3991C44.9995 50.0489 43.7496 48.8489 43.0996 47.7992C41.9997 46.0492 41.8996 43.7995 42.3997 42.4999C43.5996 39.4502 48.5489 36.2505 55.8482 38.7503L56.3483 38.9002L56.2985 39.4003C55.5982 45.4495 51.7988 50.1992 47.699 50.1992L47.699 50.1989ZM50.8488 39.15C46.8994 39.15 44.2493 41.0998 43.5494 42.9997C43.1993 43.8496 43.1993 45.6993 44.1492 47.1493C44.899 48.2991 45.9989 48.8993 47.4989 48.9491C50.9486 49.1489 54.2483 45.0495 54.9981 39.8001C53.4985 39.3 52.0987 39.15 50.8488 39.15Z" fill="black"/>
<path d="M34.0005 49.749C33.4007 49.749 32.7506 49.6991 32.0507 49.4989C26.3513 48.1992 22.9517 40.1499 24.4015 31.5509L24.5016 31.0508H25.0017C30.9009 30.8007 34.7507 32.6005 36.9504 34.1504C39.65 36.0502 41.4 38.7499 41.5998 41.2994C41.7497 43.1491 40.7998 46.1489 38.6502 47.9986C37.65 48.899 36.1501 49.7489 34.0005 49.7489L34.0005 49.749ZM25.5513 32.3009C24.4015 40.0501 27.3511 47.1493 32.3008 48.2991C34.4504 48.7992 36.3004 48.3992 37.8004 47.0992C39.7502 45.3995 40.4501 42.7497 40.35 41.4497C40.0498 37.5501 35.1005 32.1007 25.5516 32.3007L25.5513 32.3009Z" fill="black"/>
</svg>
