<svg width="80" height="80" viewBox="0 0 80 80" fill="none" xmlns="http://www.w3.org/2000/svg">
<circle cx="40" cy="40" r="40" fill="#E6F0F2"/>
<path d="M60.6897 21.1724H56.3793V19.4482C56.3793 18.2163 55.722 17.0779 54.6552 16.4618C53.5884 15.8461 52.2737 15.8461 51.2069 16.4618C50.1401 17.078 49.4828 18.2164 49.4828 19.4482V21.1724H43.4483V19.4482C43.4483 18.2163 42.7909 17.0779 41.7241 16.4618C40.6573 15.8461 39.3427 15.8461 38.2759 16.4618C37.2091 17.078 36.5517 18.2164 36.5517 19.4482V21.1724H30.5172V19.4482C30.5172 18.2163 29.8599 17.0779 28.7931 16.4618C27.7263 15.8461 26.4116 15.8461 25.3448 16.4618C24.278 17.078 23.6207 18.2164 23.6207 19.4482V21.1724H19.3103C18.1677 21.1735 17.072 21.6284 16.2638 22.4362C15.456 23.2444 15.0012 24.34 15 25.4827V59.9655C15.0012 61.1081 15.456 62.2038 16.2638 63.012C17.072 63.8198 18.1677 64.2746 19.3103 64.2758H60.6897C61.8323 64.2747 62.928 63.8198 63.7362 63.012C64.544 62.2038 64.9988 61.1081 65 59.9655V25.4827C64.9988 24.34 64.5439 23.2444 63.7362 22.4362C62.928 21.6284 61.8323 21.1735 60.6897 21.1724ZM51.2069 19.4482C51.2069 18.8321 51.5356 18.2629 52.069 17.955C52.6024 17.6471 53.2597 17.6471 53.7931 17.955C54.3265 18.2629 54.6552 18.8321 54.6552 19.4482V24.6206C54.6552 25.2368 54.3265 25.806 53.7931 26.1138C53.2597 26.4217 52.6024 26.4217 52.069 26.1138C51.5356 25.806 51.2069 25.2368 51.2069 24.6206V19.4482ZM38.2759 19.4482C38.2759 18.8321 38.6045 18.2629 39.1379 17.955C39.6713 17.6471 40.3287 17.6471 40.8621 17.955C41.3955 18.2629 41.7241 18.8321 41.7241 19.4482V24.6206C41.7241 25.2368 41.3955 25.806 40.8621 26.1138C40.3287 26.4217 39.6713 26.4217 39.1379 26.1138C38.6045 25.806 38.2759 25.2368 38.2759 24.6206V19.4482ZM25.3448 19.4482C25.3448 18.8321 25.6735 18.2629 26.2069 17.955C26.7403 17.6471 27.3976 17.6471 27.931 17.955C28.4644 18.2629 28.7931 18.8321 28.7931 19.4482V24.6206C28.7931 25.2368 28.4644 25.806 27.931 26.1138C27.3976 26.4217 26.7403 26.4217 26.2069 26.1138C25.6735 25.806 25.3448 25.2368 25.3448 24.6206V19.4482ZM63.2759 59.9655C63.2751 60.6513 63.0022 61.3086 62.5177 61.7935C62.0328 62.2781 61.3754 62.5509 60.6896 62.5517H19.3103C18.6245 62.5509 17.9672 62.2781 17.4822 61.7935C16.9977 61.3086 16.7248 60.6513 16.7241 59.9655V25.4827C16.7248 24.7969 16.9977 24.1396 17.4822 23.6546C17.9672 23.1701 18.6245 22.8972 19.3103 22.8965H23.6207V24.6206C23.6207 25.8525 24.278 26.991 25.3448 27.607C26.4116 28.2228 27.7263 28.2228 28.7931 27.607C29.8599 26.9909 30.5172 25.8524 30.5172 24.6206V22.8965H36.5517V24.6206C36.5517 25.8525 37.209 26.991 38.2758 27.607C39.3426 28.2228 40.6573 28.2228 41.7241 27.607C42.7909 26.9909 43.4482 25.8524 43.4482 24.6206V22.8965H49.4827V24.6206C49.4827 25.8525 50.1401 26.991 51.2069 27.607C52.2737 28.2228 53.5883 28.2228 54.6551 27.607C55.7219 26.9909 56.3793 25.8524 56.3793 24.6206V22.8965H60.6896C61.3754 22.8972 62.0328 23.1701 62.5177 23.6546C63.0022 24.1395 63.2751 24.7969 63.2759 25.4827V59.9655Z" fill="black"/>
<path d="M57.2414 31.5172H22.7586C22.0728 31.5179 21.4154 31.7908 20.9305 32.2753C20.446 32.7602 20.1731 33.4176 20.1724 34.1034V56.5172C20.1731 57.203 20.446 57.8603 20.9305 58.3453C21.4154 58.8298 22.0728 59.1026 22.7586 59.1034H57.2414C57.9272 59.1026 58.5845 58.8298 59.0694 58.3453C59.554 57.8603 59.8268 57.203 59.8276 56.5172V34.1034C59.8268 33.4176 59.554 32.7602 59.0694 32.2753C58.5845 31.7908 57.9272 31.5179 57.2414 31.5172ZM58.1034 56.5172C58.1027 56.9928 57.717 57.3785 57.2414 57.3792H22.7586C22.2829 57.3784 21.8973 56.9928 21.8965 56.5172V34.1034C21.8973 33.6277 22.2829 33.2421 22.7586 33.2413H57.2414C57.717 33.2421 58.1027 33.6277 58.1034 34.1034V56.5172Z" fill="black"/>
<path d="M32.2415 36.6896H27.0691C26.593 36.6896 26.207 37.0756 26.207 37.5516V42.7241C26.207 42.9527 26.2979 43.172 26.4595 43.3337C26.6211 43.4953 26.8405 43.5861 27.0691 43.5861H32.2415C32.4701 43.5861 32.6895 43.4953 32.8511 43.3337C33.0128 43.172 33.1036 42.9527 33.1036 42.7241V37.5516C33.1036 37.323 33.0128 37.1037 32.8511 36.942C32.6895 36.7804 32.4701 36.6896 32.2415 36.6896ZM31.3794 41.862H27.9312V38.4137H31.3794V41.862Z" fill="black"/>
<path d="M42.5862 36.6896H37.4138C36.9378 36.6896 36.5518 37.0756 36.5518 37.5516V42.7241C36.5518 42.9527 36.6426 43.172 36.8042 43.3337C36.9659 43.4953 37.1852 43.5861 37.4138 43.5861H42.5862C42.8148 43.5861 43.0342 43.4953 43.1958 43.3337C43.3575 43.172 43.4483 42.9527 43.4483 42.7241V37.5516C43.4483 37.323 43.3575 37.1037 43.1958 36.942C43.0342 36.7804 42.8148 36.6896 42.5862 36.6896ZM41.7242 41.862H38.2759V38.4137H41.7242V41.862Z" fill="black"/>
<path d="M52.931 36.6896H47.7586C47.2825 36.6896 46.8965 37.0756 46.8965 37.5516V42.7241C46.8965 42.9527 46.9873 43.172 47.1489 43.3337C47.3106 43.4953 47.53 43.5861 47.7586 43.5861H52.931C53.1596 43.5861 53.3789 43.4953 53.5406 43.3337C53.7022 43.172 53.793 42.9527 53.793 42.7241V37.5516C53.793 37.323 53.7022 37.1037 53.5406 36.942C53.3789 36.7804 53.1596 36.6896 52.931 36.6896ZM52.0689 41.862H48.6206V38.4137H52.0689V41.862Z" fill="black"/>
<path d="M32.2415 47.0344H27.0691C26.593 47.0344 26.207 47.4204 26.207 47.8965V53.0689C26.207 53.2975 26.2979 53.5169 26.4595 53.6785C26.6211 53.8401 26.8405 53.931 27.0691 53.931H32.2415C32.4701 53.931 32.6895 53.8401 32.8511 53.6785C33.0128 53.5169 33.1036 53.2975 33.1036 53.0689V47.8965C33.1036 47.6679 33.0128 47.4485 32.8511 47.2869C32.6895 47.1253 32.4701 47.0344 32.2415 47.0344ZM31.3794 52.2068H27.9312V48.7586H31.3794V52.2068Z" fill="black"/>
<path d="M42.5862 47.0344H37.4138C36.9378 47.0344 36.5518 47.4204 36.5518 47.8965V53.0689C36.5518 53.2975 36.6426 53.5169 36.8042 53.6785C36.9659 53.8401 37.1852 53.931 37.4138 53.931H42.5862C42.8148 53.931 43.0342 53.8401 43.1958 53.6785C43.3575 53.5169 43.4483 53.2975 43.4483 53.0689V47.8965C43.4483 47.6679 43.3575 47.4485 43.1958 47.2869C43.0342 47.1253 42.8148 47.0344 42.5862 47.0344ZM41.7242 52.2068H38.2759V48.7586H41.7242V52.2068Z" fill="black"/>
<path d="M52.931 47.0344H47.7586C47.2825 47.0344 46.8965 47.4204 46.8965 47.8965V53.0689C46.8965 53.2975 46.9873 53.5169 47.1489 53.6785C47.3106 53.8401 47.53 53.931 47.7586 53.931H52.931C53.1596 53.931 53.3789 53.8401 53.5406 53.6785C53.7022 53.5169 53.793 53.2975 53.793 53.0689V47.8965C53.793 47.6679 53.7022 47.4485 53.5406 47.2869C53.3789 47.1253 53.1596 47.0344 52.931 47.0344ZM52.0689 52.2068H48.6206V48.7586H52.0689V52.2068Z" fill="black"/>
</svg>
